# xmcd
#
# Track frame offsets:
#	150
#	13716
#	28012
#	40231
#	52068
#	60793
#	78638
#	91255
#	105825
#	118303
#	131067
#	146967
#
# Disc length: 2132 seconds
#
# Revision: 0
# Processed by: cddbd v1.5.2PL0 Copyright (c) Steve Scherf et al.
# Submitted via: EasyCDDAExtractor 2010.6.0.0
#
DISCID=a108520c
DTITLE=Various Artist - Grand Ole Opry Live Classics - Great Love Ballads
DYEAR=1900
DGENRE=
TTITLE0=Locklin Hank - Please Help Me I'm Falling
TTITLE1=Cline Patsy - Leavin' On Your Mind
TTITLE2=Hamilton George Iv - Rose And A Baby Ruth
TTITLE3=Wynette Tammy - Till I Get It Right
TTITLE4=Robbins Marty - Begging To You
TTITLE5=Snow Hank - Born To Lose
TTITLE6=West Dottie - I Fall To Pieces
TTITLE7=Walker Billy - Funny How Time Slips Away
TTITLE8=Louvin Charlie - I Think I'll Go Somewhere (And Cry Myself To Sleep)
TTITLE9=Smith Connie - Walk Through This World With Me
TTITLE10=Hart Freddie - Easy Loving
TTITLE11=Greene Jack - Together Again
EXTD=
EXTT0=
EXTT1=
EXTT2=
EXTT3=
EXTT4=
EXTT5=
EXTT6=
EXTT7=
EXTT8=
EXTT9=
EXTT10=
EXTT11=
PLAYORDER=
